<mxfile host="app.diagrams.net" agent="Mozilla/5.0 (Windows NT 10.0; Win64; x64) AppleWebKit/537.36 (KHTML, like Gecko) Chrome/137.0.0.0 Safari/537.36" version="27.2.0">
  <diagram name="Page-1" id="xJd_f9ltNaCwDVx57nyX">
    <mxGraphModel dx="1042" dy="527" grid="1" gridSize="10" guides="1" tooltips="1" connect="1" arrows="1" fold="1" page="1" pageScale="1" pageWidth="850" pageHeight="1100" math="0" shadow="0">
      <root>
        <mxCell id="0" />
        <mxCell id="1" parent="0" />
        <mxCell id="thluO9gsObPnGcCBOFyJ-1" value="" style="rounded=0;whiteSpace=wrap;html=1;" parent="1" vertex="1">
          <mxGeometry x="30" y="125" width="180" height="70" as="geometry" />
        </mxCell>
        <mxCell id="thluO9gsObPnGcCBOFyJ-2" value="" style="rounded=0;whiteSpace=wrap;html=1;" parent="1" vertex="1">
          <mxGeometry x="30" y="268.75" width="240" height="120" as="geometry" />
        </mxCell>
        <mxCell id="thluO9gsObPnGcCBOFyJ-3" value="" style="rounded=0;whiteSpace=wrap;html=1;" parent="1" vertex="1">
          <mxGeometry x="280" y="340" width="230" height="160" as="geometry" />
        </mxCell>
        <mxCell id="thluO9gsObPnGcCBOFyJ-4" value="" style="rounded=0;whiteSpace=wrap;html=1;" parent="1" vertex="1">
          <mxGeometry x="560" y="406.25" width="250" height="60" as="geometry" />
        </mxCell>
        <mxCell id="thluO9gsObPnGcCBOFyJ-5" value="" style="shape=card;whiteSpace=wrap;html=1;rotation=90;align=left;" parent="1" vertex="1">
          <mxGeometry x="600" y="343.75" width="22.5" height="102.5" as="geometry" />
        </mxCell>
        <mxCell id="thluO9gsObPnGcCBOFyJ-6" value="External Libs" style="text;html=1;align=center;verticalAlign=middle;whiteSpace=wrap;rounded=0;" parent="1" vertex="1">
          <mxGeometry x="560" y="380" width="100" height="30" as="geometry" />
        </mxCell>
        <mxCell id="thluO9gsObPnGcCBOFyJ-8" value="&lt;font style=&quot;font-size: 15px;&quot;&gt;sqlite3&lt;/font&gt;" style="rounded=0;whiteSpace=wrap;html=1;fillColor=#f5f5f5;fontColor=#333333;strokeColor=#666666;" parent="1" vertex="1">
          <mxGeometry x="580" y="422.5" width="70" height="23.75" as="geometry" />
        </mxCell>
        <mxCell id="thluO9gsObPnGcCBOFyJ-9" value="&lt;font style=&quot;font-size: 16px;&quot;&gt;streamlit&lt;/font&gt;" style="rounded=0;whiteSpace=wrap;html=1;fillColor=#f5f5f5;fontColor=#333333;strokeColor=#666666;" parent="1" vertex="1">
          <mxGeometry x="660" y="420" width="60" height="30" as="geometry" />
        </mxCell>
        <mxCell id="thluO9gsObPnGcCBOFyJ-11" value="" style="shape=card;whiteSpace=wrap;html=1;rotation=90;align=left;" parent="1" vertex="1">
          <mxGeometry x="328.75" y="268.75" width="22.5" height="120" as="geometry" />
        </mxCell>
        <mxCell id="thluO9gsObPnGcCBOFyJ-12" value="Infrastruktur" style="text;html=1;align=center;verticalAlign=middle;whiteSpace=wrap;rounded=0;fontSize=14;" parent="1" vertex="1">
          <mxGeometry x="280" y="313.75" width="100" height="30" as="geometry" />
        </mxCell>
        <mxCell id="thluO9gsObPnGcCBOFyJ-13" value="&lt;font style=&quot;font-size: 15px;&quot;&gt;database.py&lt;/font&gt;" style="rounded=0;whiteSpace=wrap;html=1;fillColor=#f5f5f5;fontColor=#333333;strokeColor=#666666;" parent="1" vertex="1">
          <mxGeometry x="351.25" y="360" width="88.75" height="40" as="geometry" />
        </mxCell>
        <mxCell id="thluO9gsObPnGcCBOFyJ-15" value="" style="endArrow=classic;html=1;rounded=0;entryX=0;entryY=0.5;entryDx=0;entryDy=0;exitX=1;exitY=0.5;exitDx=0;exitDy=0;" parent="1" source="thluO9gsObPnGcCBOFyJ-13" target="thluO9gsObPnGcCBOFyJ-8" edge="1">
          <mxGeometry width="50" height="50" relative="1" as="geometry">
            <mxPoint x="448.75" y="370" as="sourcePoint" />
            <mxPoint x="498.75" y="320" as="targetPoint" />
          </mxGeometry>
        </mxCell>
        <mxCell id="thluO9gsObPnGcCBOFyJ-16" value="&lt;font&gt;&lt;i style=&quot;&quot;&gt;&amp;lt;&amp;lt;Database&amp;gt;&amp;gt;&lt;/i&gt;&lt;br&gt;&lt;/font&gt;&lt;div&gt;&lt;font&gt;&lt;i style=&quot;&quot;&gt;perusahaan.db&lt;/i&gt;&lt;/font&gt;&lt;/div&gt;" style="rounded=0;whiteSpace=wrap;html=1;fillColor=#f5f5f5;fontColor=#333333;strokeColor=#666666;" parent="1" vertex="1">
          <mxGeometry x="350.63" y="440" width="88.75" height="40" as="geometry" />
        </mxCell>
        <mxCell id="thluO9gsObPnGcCBOFyJ-17" value="" style="endArrow=classic;html=1;rounded=0;exitX=0.5;exitY=1;exitDx=0;exitDy=0;" parent="1" source="thluO9gsObPnGcCBOFyJ-13" target="thluO9gsObPnGcCBOFyJ-16" edge="1">
          <mxGeometry width="50" height="50" relative="1" as="geometry">
            <mxPoint x="500" y="531.063829787234" as="sourcePoint" />
            <mxPoint x="620" y="480" as="targetPoint" />
          </mxGeometry>
        </mxCell>
        <mxCell id="thluO9gsObPnGcCBOFyJ-19" value="" style="shape=card;whiteSpace=wrap;html=1;rotation=90;align=left;" parent="1" vertex="1">
          <mxGeometry x="85" y="195" width="20" height="130" as="geometry" />
        </mxCell>
        <mxCell id="thluO9gsObPnGcCBOFyJ-20" value="Model" style="text;html=1;align=center;verticalAlign=middle;whiteSpace=wrap;rounded=0;fontSize=14;" parent="1" vertex="1">
          <mxGeometry x="30" y="245" width="100" height="30" as="geometry" />
        </mxCell>
        <mxCell id="thluO9gsObPnGcCBOFyJ-21" value="&lt;div&gt;&lt;font&gt;&amp;lt;&amp;lt;Folder&amp;gt;&amp;gt;&lt;/font&gt;&lt;/div&gt;&lt;font&gt;models&lt;/font&gt;" style="rounded=0;whiteSpace=wrap;html=1;fillColor=#f5f5f5;fontColor=#333333;strokeColor=#666666;" parent="1" vertex="1">
          <mxGeometry x="90.62" y="280" width="89.38" height="30" as="geometry" />
        </mxCell>
        <mxCell id="thluO9gsObPnGcCBOFyJ-22" value="&lt;font&gt;karyawan.py&lt;/font&gt;" style="rounded=0;whiteSpace=wrap;html=1;fillColor=#f5f5f5;fontColor=#333333;strokeColor=#666666;" parent="1" vertex="1">
          <mxGeometry x="35" y="350" width="70" height="20" as="geometry" />
        </mxCell>
        <mxCell id="thluO9gsObPnGcCBOFyJ-23" value="&lt;font&gt;perusahaan.py&lt;/font&gt;" style="rounded=0;whiteSpace=wrap;html=1;fillColor=#f5f5f5;fontColor=#333333;strokeColor=#666666;" parent="1" vertex="1">
          <mxGeometry x="110" y="346.25" width="80" height="27.5" as="geometry" />
        </mxCell>
        <mxCell id="thluO9gsObPnGcCBOFyJ-24" value="&lt;font&gt;proyek.py&lt;/font&gt;" style="rounded=0;whiteSpace=wrap;html=1;fillColor=#f5f5f5;fontColor=#333333;strokeColor=#666666;" parent="1" vertex="1">
          <mxGeometry x="200" y="350" width="60" height="20" as="geometry" />
        </mxCell>
        <mxCell id="thluO9gsObPnGcCBOFyJ-27" value="" style="endArrow=none;html=1;rounded=0;exitX=0.5;exitY=0;exitDx=0;exitDy=0;" parent="1" source="thluO9gsObPnGcCBOFyJ-22" edge="1">
          <mxGeometry width="50" height="50" relative="1" as="geometry">
            <mxPoint x="80" y="340" as="sourcePoint" />
            <mxPoint x="120" y="310" as="targetPoint" />
          </mxGeometry>
        </mxCell>
        <mxCell id="thluO9gsObPnGcCBOFyJ-28" value="" style="endArrow=none;html=1;rounded=0;entryX=0.5;entryY=1;entryDx=0;entryDy=0;exitX=0.5;exitY=0;exitDx=0;exitDy=0;" parent="1" source="thluO9gsObPnGcCBOFyJ-23" target="thluO9gsObPnGcCBOFyJ-21" edge="1">
          <mxGeometry width="50" height="50" relative="1" as="geometry">
            <mxPoint x="280" y="250" as="sourcePoint" />
            <mxPoint x="330" y="200" as="targetPoint" />
          </mxGeometry>
        </mxCell>
        <mxCell id="thluO9gsObPnGcCBOFyJ-29" value="" style="endArrow=none;html=1;rounded=0;entryX=0.75;entryY=1;entryDx=0;entryDy=0;exitX=0.373;exitY=-0.015;exitDx=0;exitDy=0;exitPerimeter=0;" parent="1" source="thluO9gsObPnGcCBOFyJ-24" target="thluO9gsObPnGcCBOFyJ-21" edge="1">
          <mxGeometry width="50" height="50" relative="1" as="geometry">
            <mxPoint x="191" y="344" as="sourcePoint" />
            <mxPoint x="180" y="310" as="targetPoint" />
          </mxGeometry>
        </mxCell>
        <mxCell id="thluO9gsObPnGcCBOFyJ-30" value="" style="endArrow=classic;html=1;rounded=0;exitX=1;exitY=0.5;exitDx=0;exitDy=0;entryX=0.5;entryY=0;entryDx=0;entryDy=0;" parent="1" source="thluO9gsObPnGcCBOFyJ-21" target="thluO9gsObPnGcCBOFyJ-13" edge="1">
          <mxGeometry width="50" height="50" relative="1" as="geometry">
            <mxPoint x="320" y="300" as="sourcePoint" />
            <mxPoint x="370" y="250" as="targetPoint" />
            <Array as="points">
              <mxPoint x="396" y="295" />
            </Array>
          </mxGeometry>
        </mxCell>
        <mxCell id="thluO9gsObPnGcCBOFyJ-33" value="" style="shape=card;whiteSpace=wrap;html=1;rotation=90;" parent="1" vertex="1">
          <mxGeometry x="75.62" y="55" width="20" height="115" as="geometry" />
        </mxCell>
        <mxCell id="thluO9gsObPnGcCBOFyJ-34" value="&lt;font style=&quot;font-size: 11px;&quot;&gt;Aplikasi Streamlit&lt;/font&gt;" style="text;html=1;align=center;verticalAlign=middle;whiteSpace=wrap;rounded=0;" parent="1" vertex="1">
          <mxGeometry x="30" y="97.5" width="100" height="30" as="geometry" />
        </mxCell>
        <mxCell id="thluO9gsObPnGcCBOFyJ-35" value="&lt;font&gt;app.py&lt;/font&gt;" style="rounded=0;whiteSpace=wrap;html=1;fillColor=#f5f5f5;fontColor=#333333;strokeColor=#666666;" parent="1" vertex="1">
          <mxGeometry x="80" y="142.5" width="80" height="27.5" as="geometry" />
        </mxCell>
        <mxCell id="thluO9gsObPnGcCBOFyJ-36" value="" style="endArrow=classic;html=1;rounded=0;exitX=1;exitY=1;exitDx=0;exitDy=0;entryX=0.5;entryY=0;entryDx=0;entryDy=0;dashed=1;strokeColor=default;" parent="1" source="thluO9gsObPnGcCBOFyJ-35" target="thluO9gsObPnGcCBOFyJ-9" edge="1">
          <mxGeometry width="50" height="50" relative="1" as="geometry">
            <mxPoint x="280" y="200" as="sourcePoint" />
            <mxPoint x="330" y="150" as="targetPoint" />
          </mxGeometry>
        </mxCell>
        <mxCell id="thluO9gsObPnGcCBOFyJ-39" value="" style="endArrow=classic;html=1;rounded=0;exitX=0.5;exitY=1;exitDx=0;exitDy=0;entryX=0.329;entryY=0.043;entryDx=0;entryDy=0;entryPerimeter=0;dashed=1;" parent="1" source="thluO9gsObPnGcCBOFyJ-35" target="thluO9gsObPnGcCBOFyJ-21" edge="1">
          <mxGeometry width="50" height="50" relative="1" as="geometry">
            <mxPoint x="250" y="200" as="sourcePoint" />
            <mxPoint x="300" y="150" as="targetPoint" />
          </mxGeometry>
        </mxCell>
        <mxCell id="dbwnpHQtG1IAEA7htceK-1" value="&lt;b&gt;Pandas&lt;/b&gt;" style="rounded=0;whiteSpace=wrap;html=1;fillColor=#f5f5f5;fontColor=#333333;strokeColor=#666666;" vertex="1" parent="1">
          <mxGeometry x="730" y="419.38" width="70" height="30" as="geometry" />
        </mxCell>
        <mxCell id="dbwnpHQtG1IAEA7htceK-2" value="" style="endArrow=classic;html=1;rounded=0;exitX=1;exitY=0.25;exitDx=0;exitDy=0;entryX=0.25;entryY=0;entryDx=0;entryDy=0;dashed=1;strokeColor=default;" edge="1" parent="1" source="thluO9gsObPnGcCBOFyJ-35" target="dbwnpHQtG1IAEA7htceK-1">
          <mxGeometry width="50" height="50" relative="1" as="geometry">
            <mxPoint x="230" y="96" as="sourcePoint" />
            <mxPoint x="760" y="360" as="targetPoint" />
          </mxGeometry>
        </mxCell>
      </root>
    </mxGraphModel>
  </diagram>
</mxfile>
